<?xml version="1.0" encoding="UTF-8"?>
<svg id="SVGDoc" width="16" height="16" xmlns="http://www.w3.org/2000/svg" version="1.1" xmlns:xlink="http://www.w3.org/1999/xlink" xmlns:avocode="https://avocode.com/" viewBox="0 0 16 16"><defs></defs><desc>Generated with Avocode.</desc><g><g><title>LinkedIn icon</title><path d="M4.46404,1.91832c0,0.97372 -0.69986,1.69043 -1.89651,1.69043c-1.12558,0 -1.88012,-0.71671 -1.88012,-1.69043c0,-0.99759 0.75076,-1.70438 1.89995,-1.70438c1.14944,0 1.85351,0.70679 1.87669,1.70438zM0.99571,16.01009v-11.02302h3.0112v11.02302zM6.01517,4.98708h2.68633l0.32178,1.12242c0.44409,-0.7101 1.40582,-1.50391 3.22689,-1.50391c2.22061,0 3.75587,1.29499 3.75587,4.49006v6.88287h-2.99953v-6.40115c0,-1.3978 -0.96585,-2.35169 -2.18731,-2.35169c-0.93272,0 -1.47165,0.64327 -1.71593,1.26451c-0.08909,0.22177 -0.11141,0.53276 -0.11141,0.84338v6.64495h-2.97669z" fill="#ffffff" fill-opacity="1"></path></g></g></svg>