<?xml version="1.0" encoding="UTF-8"?>
<svg id="SVGDoc" width="16" height="12" xmlns="http://www.w3.org/2000/svg" version="1.1" xmlns:xlink="http://www.w3.org/1999/xlink" xmlns:avocode="https://avocode.com/" viewBox="0 0 16 12"><defs></defs><desc>Generated with Avocode.</desc><g><g><title>Mail</title><path d="M0.60868,1.178c0.48752,0.27023 6.23817,4.01054 6.48932,4.14933c0.25148,0.13916 0.57704,0.20635 0.90508,0.20635c0.32804,0 0.65351,-0.06719 0.905,-0.20635c0.25114,-0.13879 6.0018,-3.87909 6.48932,-4.14933c0.48786,-0.27023 0.94954,-1.11838 0.0533,-1.11838h-14.8954c-0.89556,0 -0.43447,0.84815 0.05339,1.11838zM15.60399,3.2378c-0.55395,0.2985 -6.35679,3.96721 -6.69591,4.14969c-0.33946,0.18285 -0.57695,0.20635 -0.905,0.20635c-0.32804,0 -0.56562,-0.0235 -0.90508,-0.20635c-0.33912,-0.18248 -6.14161,-3.85119 -6.69591,-4.14969c-0.38984,-0.20965 -0.38658,0.03635 -0.38658,0.22617c0,0.18982 0,7.55551 0,7.55551c0,0.43179 0.55764,0.98767 0.99049,0.98767h13.99418c0.43276,0 0.9904,-0.55589 0.9904,-0.98767c0,0 0,-7.36569 0,-7.55551c0,-0.18982 0.00369,-0.43582 -0.38658,-0.22617z" fill="#ffffff" fill-opacity="1"></path></g></g></svg>