<?xml version="1.0" encoding="UTF-8"?>
<svg id="SVGDoc" width="17" height="14" xmlns="http://www.w3.org/2000/svg" version="1.1" xmlns:xlink="http://www.w3.org/1999/xlink" xmlns:avocode="https://avocode.com/" viewBox="0 0 17 14"><defs></defs><desc>Generated with Avocode.</desc><g><g><title>Twitter</title><path d="M16.98436,1.65553c-0.62468,0.28125 -1.29544,0.47144 -1.99968,0.55662c0.719,-0.43766 1.2709,-1.1305 1.53096,-1.95589c-0.67291,0.40535 -1.41792,0.69945 -2.21074,0.85806c-0.63515,-0.68733 -1.54006,-1.11618 -2.54119,-1.11618c-1.92261,0 -3.48138,1.58248 -3.48138,3.53469c0,0.27721 0.03064,0.54708 0.09004,0.80556c-2.8931,-0.14723 -5.45909,-1.55457 -7.17562,-3.69368c-0.29972,0.52248 -0.47155,1.1294 -0.47155,1.77744c0,1.22633 0.61455,2.308 1.54864,2.94209c-0.57017,-0.01799 -1.10739,-0.17697 -1.5768,-0.4417c-0.00034,0.01469 -0.00034,0.02901 -0.00034,0.04406c0,1.71319 1.20034,3.14183 2.79267,3.4664c-0.29182,0.08114 -0.59944,0.1241 -0.91727,0.1241c-0.22402,0 -0.44203,-0.02203 -0.65489,-0.06352c0.44314,1.4044 1.72923,2.42696 3.2523,2.45523c-1.19167,0.94839 -2.69242,1.51345 -4.32364,1.51345c-0.28101,0 -0.55799,-0.01689 -0.83033,-0.0503c1.54032,1.00383 3.37006,1.58909 5.33661,1.58909c6.40331,0 9.9052,-5.38704 9.9052,-10.05811c0,-0.15311 -0.00326,-0.30585 -0.01013,-0.45785c0.68012,-0.49788 1.27021,-1.12059 1.73713,-1.82958z" fill="#ffffff" fill-opacity="1"></path></g></g></svg>